<mxfile host="app.diagrams.net" modified="2024-04-28T01:47:29.967Z" agent="Mozilla/5.0 (Windows NT 10.0; Win64; x64) AppleWebKit/537.36 (KHTML, like Gecko) Chrome/124.0.0.0 Safari/537.36" version="24.2.8" etag="Mx5BNJuUG4V5czXM09Tn" type="github">
  <diagram name="第 1 页" id="X3UU8-IB8EJOIezaeo0U">
    <mxGraphModel>
      <root>
        <mxCell id="0" />
        <mxCell id="1" parent="0" />
      </root>
    </mxGraphModel>
  </diagram>
</mxfile>
